<svg xmlns="http://www.w3.org/2000/svg" viewBox="0 0 800 800"><style>.st49{fill:#d4e4fe}</style><g id="图层_5"><linearGradient id="SVGID_1_" x1="401.193" x2="401.193" y1="159.763" y2="715.254" gradientUnits="userSpaceOnUse"><stop offset="0" stop-color="#F4F2FB"/><stop offset="1" stop-color="#E1EEF5"/></linearGradient><path d="M484.45 201.12c-38.37 30.29-120.74 33.81-181.17-2.22s-172-31.38-202.22 34.87 37.19 131.33 12.78 178.98S8.08 527.79 63.87 609.15s126.6 60.62 169.22 52.45c84.17-16.13 189.79 115.67 308.62 16.13 68.47-57.35 170.44 42.09 210.17-81.36 32.78-101.86-85.67-139.5-49.97-208.03 37.96-72.88 30.67-159.24-10.46-201.06-38.31-38.96-140.75-38.46-207 13.84" style="fill:url(#SVGID_1_)"/><linearGradient id="SVGID_2_" x1="484.537" x2="484.537" y1="604.68" y2="493.367" gradientUnits="userSpaceOnUse"><stop offset=".34" stop-color="#B0B9E1"/><stop offset=".866" stop-color="#EAF0F8"/></linearGradient><path d="M285.1 583.44c1.77-1.63 77.74-90.07 77.74-90.07h321.13l-99.5 111.31z" style="fill:url(#SVGID_2_)"/><linearGradient id="SVGID_3_" x1="616.023" x2="657.332" y1="627.266" y2="555.716" gradientUnits="userSpaceOnUse"><stop offset="0" stop-color="#B0B9E1"/><stop offset=".866" stop-color="#EAF0F8"/></linearGradient><path d="m604.49 620.61 54.94-63.68-26.21 67.19z" style="fill:url(#SVGID_3_)"/><linearGradient id="SVGID_4_" x1="116.275" x2="116.275" y1="540.149" y2="402.974" gradientUnits="userSpaceOnUse"><stop offset=".003" stop-color="#9A9ADB"/><stop offset=".789" stop-color="#CECDF1"/></linearGradient><path d="M117.06 403.22s-.22-.57-.52.04c-2.7 5.49-27.15 64.96-29.09 110.86 0 0-4.08 26.37 30.11 26.02 28.54-.29 27.78-24.6 27.68-32.79-.39-33.22-28.18-104.13-28.18-104.13" style="fill:url(#SVGID_4_)"/><linearGradient id="SVGID_5_" x1="116.277" x2="116.277" y1="418.206" y2="569.34" gradientUnits="userSpaceOnUse"><stop offset="0" stop-color="#ECF1FB"/><stop offset=".818" stop-color="#AFB0E7"/></linearGradient><path d="M116.28 569.34c-.55 0-1-.45-1-1V419.21c0-.55.45-1 1-1s1 .45 1 1v149.13c0 .55-.45 1-1 1" style="fill:url(#SVGID_5_)"/><linearGradient id="SVGID_6_" x1="617.404" x2="617.404" y1="448.627" y2="360.303" gradientUnits="userSpaceOnUse"><stop offset=".227" stop-color="#CCD4F4"/><stop offset=".789" stop-color="#ECF1FB"/></linearGradient><path d="M617.91 360.46s-.14-.37-.33.03c-1.74 3.53-17.48 41.83-18.73 71.38 0 0-2.63 16.98 19.39 16.76 18.38-.18 17.89-15.84 17.82-21.11-.25-21.4-18.15-67.06-18.15-67.06" style="fill:url(#SVGID_6_)"/><linearGradient id="SVGID_7_" x1="617.405" x2="617.405" y1="370.11" y2="467.422" gradientUnits="userSpaceOnUse"><stop offset="0" stop-color="#ECF1FB"/><stop offset="1" stop-color="#A6A8E2"/></linearGradient><path d="M617.41 467.42c-.36 0-.64-.29-.64-.64v-96.02c0-.36.29-.64.64-.64.36 0 .64.29.64.64v96.02c0 .35-.29.64-.64.64" style="fill:url(#SVGID_7_)"/><linearGradient id="SVGID_8_" x1="463.322" x2="428.568" y1="86.02" y2="146.217" gradientUnits="userSpaceOnUse"><stop offset="0" stop-color="#FFDB80"/><stop offset="1" stop-color="#FFBB24"/></linearGradient><circle cx="445.95" cy="116.12" r="34.75" style="fill:url(#SVGID_8_)"/><linearGradient id="SVGID_9_" x1="420.985" x2="420.985" y1="116.487" y2="173.941" gradientUnits="userSpaceOnUse"><stop offset="0" stop-color="#F9FAFE"/><stop offset="1" stop-color="#E5EDF7"/></linearGradient><path d="M465.72 135.07h-34.57c-2.23-10.61-11.65-18.58-22.93-18.58s-20.69 7.97-22.93 18.58h-9.05c-10.73 0-19.44 8.7-19.44 19.44 0 10.73 8.7 19.44 19.44 19.44h89.47c10.73 0 19.44-8.7 19.44-19.44.01-10.74-8.69-19.44-19.43-19.44" style="fill:url(#SVGID_9_)"/><linearGradient id="SVGID_10_" x1="688.006" x2="688.006" y1="537.867" y2="510.039" gradientUnits="userSpaceOnUse"><stop offset=".227" stop-color="#AFB0E7"/><stop offset="1" stop-color="#ECF1FB"/></linearGradient><circle cx="688.01" cy="523.95" r="13.91" style="fill:url(#SVGID_10_)"/><linearGradient id="SVGID_11_" x1="688.056" x2="688.056" y1="513.553" y2="558.349" gradientUnits="userSpaceOnUse"><stop offset="0" stop-color="#DDE1F6"/><stop offset=".818" stop-color="#A6A8E2"/></linearGradient><path d="M688.06 558.35c-.24 0-.43-.19-.43-.43v-43.94c0-.24.19-.43.43-.43s.43.19.43.43v43.94a.44.44 0 0 1-.43.43" style="fill:url(#SVGID_11_)"/><linearGradient id="SVGID_12_" x1="2879.853" x2="2737.462" y1="308.382" y2="450.774" gradientTransform="matrix(-1 0 0 1 3207.18 0)" gradientUnits="userSpaceOnUse"><stop offset="0" stop-color="#C8CBF2"/><stop offset="1" stop-color="#AFB0E7"/></linearGradient><path d="m270.73 392.79 91.4-73.3c7.43 11.92 20.65 19.87 35.7 19.87 16.43 0 30.69-9.48 37.6-23.26l92.11 76.85 10.83-12.98-98.5-82.19c0-.16.01-.31.01-.47 0-23.18-18.86-42.04-42.05-42.04-23.18 0-42.04 18.86-42.04 42.04 0 1.8.13 3.58.35 5.32l-95.98 76.97zm101.96-95.48c0-13.86 11.28-25.14 25.14-25.14s25.14 11.28 25.14 25.14-11.28 25.14-25.14 25.14-25.14-11.27-25.14-25.14" style="fill:url(#SVGID_12_)"/><linearGradient id="SVGID_13_" x1="2814.247" x2="2814.247" y1="259.815" y2="392.836" gradientTransform="matrix(-1 0 0 1 3207.18 0)" gradientUnits="userSpaceOnUse"><stop offset=".116" stop-color="#DEE4FF"/><stop offset=".847" stop-color="#C6D5F4"/></linearGradient><path d="m268.75 392.68 88.31-70.82c7.18 11.51 19.95 19.2 34.49 19.2 15.88 0 29.65-9.16 36.33-22.47l88.99 74.25 10.46-12.54-95.17-79.41c0-.15.01-.3.01-.46 0-22.4-18.22-40.62-40.62-40.62s-40.62 18.22-40.62 40.62c0 1.74.12 3.46.34 5.14l-92.73 74.37zm98.51-92.24c0-13.4 10.9-24.29 24.29-24.29 13.4 0 24.29 10.9 24.29 24.29 0 13.4-10.9 24.29-24.29 24.29-13.4 0-24.29-10.9-24.29-24.29" style="fill:url(#SVGID_13_)"/><linearGradient id="SVGID_14_" x1="2966.463" x2="2654.707" y1="329.794" y2="641.55" gradientTransform="matrix(-1 0 0 1 3203.43 0)" gradientUnits="userSpaceOnUse"><stop offset="0" stop-color="#C8CBF2"/><stop offset="1" stop-color="#AFB0E7"/></linearGradient><path d="M230.6 619.91h326.35c17.89 0 32.39-14.5 32.39-32.39V388.31c0-21.39-17.34-38.72-38.72-38.72H230.6c-17.89 0-32.39 14.5-32.39 32.39v205.54c-.01 17.88 14.5 32.39 32.39 32.39" style="fill:url(#SVGID_14_)"/><linearGradient id="SVGID_15_" x1="2716.773" x2="2914.293" y1="319.563" y2="661.678" gradientTransform="matrix(-1 0 0 1 3203.43 0)" gradientUnits="userSpaceOnUse"><stop offset="0" stop-color="#EBF2FA"/><stop offset=".525" stop-color="#FDFEFF"/></linearGradient><path d="M223.6 619.91h328.59c14.03 0 25.4-11.37 25.4-25.4V386.73c0-14.03-11.37-25.4-25.4-25.4H223.6c-14.03 0-25.4 11.37-25.4 25.4v207.78c0 14.03 11.38 25.4 25.4 25.4" style="fill:url(#SVGID_15_)"/><linearGradient id="SVGID_16_" x1="2815.495" x2="2815.495" y1="361.334" y2="425.526" gradientTransform="matrix(-1 0 0 1 3203.43 0)" gradientUnits="userSpaceOnUse"><stop offset=".116" stop-color="#DEE4FF"/><stop offset=".847" stop-color="#BACBEE"/></linearGradient><path d="M198.24 425.53h379.39v-38.79c0-14.03-11.37-25.4-25.4-25.4H223.64c-14.03 0-25.4 11.37-25.4 25.4z" style="fill:url(#SVGID_16_)"/><linearGradient id="SVGID_17_" x1="276.445" x2="350.685" y1="488.742" y2="531.604" gradientUnits="userSpaceOnUse"><stop offset=".116" stop-color="#DEE4FF"/><stop offset=".847" stop-color="#BACBEE"/></linearGradient><path d="M328.82 457.46H307.7c-1.27 0-2.46.59-3.24 1.59L261.91 514c-.56.72-.86 1.6-.86 2.51v23.15c0 2.26 1.83 4.09 4.09 4.09h41.34c2.26 0 4.09 1.83 4.09 4.09v13.46c0 2.26 1.83 4.09 4.09 4.09h14.14c2.26 0 4.09-1.83 4.09-4.09v-13.46c0-2.26 1.83-4.09 4.09-4.09s4.09-1.83 4.09-4.09V525.5c0-2.26-1.83-4.09-4.09-4.09s-4.09-1.83-4.09-4.09v-55.77a4.06 4.06 0 0 0-4.07-4.09m-39.3 57.35 13.74-17.74c2.39-3.08 7.33-1.4 7.33 2.51v17.74c0 2.26-1.83 4.09-4.09 4.09h-13.74c-3.41 0-5.33-3.91-3.24-6.6" style="fill:url(#SVGID_17_)"/><linearGradient id="SVGID_18_" x1="455.095" x2="529.335" y1="488.742" y2="531.604" gradientUnits="userSpaceOnUse"><stop offset=".116" stop-color="#DEE4FF"/><stop offset=".847" stop-color="#BACBEE"/></linearGradient><path d="M511.56 517.32v-55.77c0-2.26-1.83-4.09-4.09-4.09h-21.12c-1.27 0-2.46.59-3.24 1.59L440.56 514c-.56.72-.86 1.6-.86 2.51v23.15c0 2.26 1.83 4.09 4.09 4.09h41.34c2.26 0 4.09 1.83 4.09 4.09v13.46c0 2.26 1.83 4.09 4.09 4.09h14.14c2.26 0 4.09-1.83 4.09-4.09v-13.46c0-2.26 1.83-4.09 4.09-4.09s4.09-1.83 4.09-4.09V525.5c0-2.26-1.83-4.09-4.09-4.09-2.24 0-4.07-1.83-4.07-4.09m-43.39-2.51 13.74-17.74c2.39-3.08 7.33-1.4 7.33 2.51v17.74c0 2.26-1.83 4.09-4.09 4.09H471.4c-3.4 0-5.32-3.91-3.23-6.6" style="fill:url(#SVGID_18_)"/><linearGradient id="SVGID_19_" x1="339.488" x2="441.31" y1="482.174" y2="540.961" gradientUnits="userSpaceOnUse"><stop offset=".116" stop-color="#DEE4FF"/><stop offset=".847" stop-color="#BACBEE"/></linearGradient><path d="M356.4 566.16h68c2.26 0 4.09-1.83 4.09-4.09v-101c0-2.26-1.83-4.09-4.09-4.09h-68c-2.26 0-4.09 1.83-4.09 4.09v101c0 2.26 1.83 4.09 4.09 4.09m49.76-82.76v56.34c0 2.26-1.83 4.09-4.09 4.09h-23.34c-2.26 0-4.09-1.83-4.09-4.09V483.4c0-2.26 1.83-4.09 4.09-4.09h23.34c2.26 0 4.09 1.83 4.09 4.09" style="fill:url(#SVGID_19_)"/><linearGradient id="SVGID_20_" x1="871.514" x2="872.065" y1="4485.232" y2="4498.77" gradientTransform="rotate(2.333 95904.663 -3670.234)" gradientUnits="userSpaceOnUse"><stop offset="0" stop-color="#FFDB80"/><stop offset="1" stop-color="#FFBB24"/></linearGradient><path d="M605.95 610.6s3.25 4.88 10.55 1.06c3.91 2.72 8.92 4.97 12.39 5.88s3.68 5.4 3.12 6.61c-4.66-.47-18.14.64-27.3-2.94.72-7.53 1.24-10.61 1.24-10.61" style="fill:url(#SVGID_20_)"/><path d="m604.06 623.84.43-3.23s10.54 2.63 28.38 1.03c.17 1.66.35 2.48.35 2.48s-13.56 2.02-29.16-.28" class="st49"/><linearGradient id="SVGID_21_" x1="-1427.263" x2="-1409.896" y1="-235.579" y2="-215.318" gradientTransform="rotate(40.6 -1575.457 2818.52)" gradientUnits="userSpaceOnUse"><stop offset="0" stop-color="#FFDB80"/><stop offset="1" stop-color="#FFBB24"/></linearGradient><path d="M520.47 596.12s-.05 5.81 7.27 7.94c1.95 5-3.73 11.79 5.37 12.42 3.34.23 1.75 5.12.73 5.63-10.95 4.01-14.63-10.12-19.62-18.98 4.32-5.09 6.25-7.01 6.25-7.01" style="fill:url(#SVGID_21_)"/><linearGradient id="SVGID_22_" x1="-3772.01" x2="-3772.01" y1="604.486" y2="502.198" gradientTransform="matrix(-1 0 0 1 -3222.68 0)" gradientUnits="userSpaceOnUse"><stop offset="0" stop-color="#445677"/><stop offset="1" stop-color="#293861"/></linearGradient><path d="M569.3 502.2s-14.44-.26-17.67 18.85 1.57 23.66-5.38 37.29c-3.62 7.1-27.15 41.12-27.15 41.12l6.83 5.03s37.94-34.72 43.52-48.71 9.83-28.83 10.13-41.46c.28-12.62-10.28-12.12-10.28-12.12" style="fill:url(#SVGID_22_)"/><linearGradient id="SVGID_23_" x1="-3839.642" x2="-3786.238" y1="559.801" y2="559.801" gradientTransform="matrix(-1 0 0 1 -3222.68 0)" gradientUnits="userSpaceOnUse"><stop offset="0" stop-color="#445677"/><stop offset="1" stop-color="#293861"/></linearGradient><path d="M572.72 506.19s14.87 3.53 15.75 3.98c.44.23 2.89 7.07 5.24 13.95 5.04 6.87 23.02 32.28 23.21 45.51.29 20.13-.96 43.67-.96 43.67l-9.24.11s-3.5-38.9-5.85-42.31c-.42-.61-1.29-1.95-2.42-3.74-5.14-6.22-16.5-16.65-28.16-27.07-16.45-14.66 2.43-34.1 2.43-34.1" style="fill:url(#SVGID_23_)"/><linearGradient id="SVGID_24_" x1="5317.908" x2="5317.908" y1="132.095" y2="56.817" gradientTransform="rotate(26.086 2112.504 -9908.036)" gradientUnits="userSpaceOnUse"><stop offset="0" stop-color="#C3D5FD"/><stop offset="1" stop-color="#1A90FC"/></linearGradient><path d="M603.14 448.91s-10.69-8.37-16.99-4.36c-6.3 4-14.27 18.91-14.27 18.91l8.85 4.38-23.8 39.67 40.69 21.83 14.6-42.28 11.79.69s7.96-25.24-3.62-27.43c-5.45-2.3-7.04-3.34-7.04-3.34s-3.49 4.27-7.99 1.18-2.22-9.25-2.22-9.25" style="fill:url(#SVGID_24_)"/><linearGradient id="SVGID_25_" x1="5161.945" x2="5171.26" y1="1134.369" y2="1068.78" gradientTransform="rotate(18.006 4848.87 -13687.47)" gradientUnits="userSpaceOnUse"><stop offset="0" stop-color="#C3D5FD"/><stop offset="1" stop-color="#1A90FC"/></linearGradient><path d="M589.15 443.6c3.88.61 8.04 4.05 4.56 12.85s-16.66 18.5-16.06 24.82c.6 6.4 3.37 16.58 5.33 22.6-2.8 4.17-6.72 6.78-6.72 6.78s-10.33-14.75-13.12-25.23 7.07-25.25 14.69-35.41c5.73-7.67 11.32-6.41 11.32-6.41" style="fill:url(#SVGID_25_)"/><linearGradient id="SVGID_26_" x1="-8924.659" x2="-8915.544" y1="-865.525" y2="-929.706" gradientTransform="scale(-1 1)rotate(-34.172 -2504.53 -13720.806)" gradientUnits="userSpaceOnUse"><stop offset="0" stop-color="#C3D5FD"/><stop offset="1" stop-color="#1A90FC"/></linearGradient><path d="M624.12 463.5c-2.79-3.19-7.68-4.9-11.53 3.69s-2.35 26.64-7.02 29.97c-4.72 3.37-13.34 7.07-18.62 8.96-1.12 5.12-.49 10.33-.49 10.33s16.36.44 25.19-3.42 12.82-21.97 15.06-35.2c1.69-9.97-2.59-14.33-2.59-14.33" style="fill:url(#SVGID_26_)"/><linearGradient id="SVGID_27_" x1="-3813.896" x2="-3841.811" y1="480.898" y2="423.883" gradientTransform="matrix(-1 0 0 1 -3222.68 0)" gradientUnits="userSpaceOnUse"><stop offset="0" stop-color="#4F5C7C"/><stop offset="1" stop-color="#274168"/></linearGradient><path d="M590.9 439.68c.43-4.69 4.5-7.9 9.3-7.17.4-1.31 4.44-2.98 5.38-4.6 3.5-6.03 9.26-7 14-3.56 9.79 2.79 8.01 12.2 4.75 21.55 2.8 5.61 1.52 12.41-.06 15.18 4.75 5.07 2.09 11.58-1.39 16.52-.4.56-.82 1.06-1.25 1.52-.21 5.85-8.34 7.86-11.32 4.89-3.17-3.16-3.57-4.49-9.32-1.76s-11.24-1.54-11.3-7.34-4.28-4.1-6.12-5.63c-3.33-2.77-1.15-5.93-1.15-5.93s-4.85-.26-6.01-7.38c-1.33-16.99 11.95-17.08 14.49-16.29" style="fill:url(#SVGID_27_)"/><path d="M515.38 601.24s4.92 12.03 5.91 13.61 5.9 9.27 14.26 5.05c-.04 1.49-.11 2.43-.11 2.43s-9.42 6.26-15.33-4.62-6.75-14.63-6.75-14.63z" class="st49"/></g></svg>