<svg xmlns="http://www.w3.org/2000/svg" viewBox="0 0 800 800"><style>.st26{fill:#fff}</style><g id="图层_16"><linearGradient id="SVGID_1_" x1="402.832" x2="402.832" y1="159.843" y2="715.335" gradientUnits="userSpaceOnUse"><stop offset="0" stop-color="#F4F2FB"/><stop offset="1" stop-color="#E1EEF5"/></linearGradient><path d="M486.09 201.2c-38.37 30.29-120.74 33.81-181.17-2.22s-172-31.38-202.22 34.87 37.19 131.33 12.78 178.98S9.72 527.87 65.5 609.23s126.6 60.62 169.22 52.45c84.17-16.13 189.79 115.67 308.62 16.13 68.47-57.35 170.44 42.09 210.17-81.36 32.78-101.86-85.67-139.5-49.97-208.03 37.96-72.88 30.67-159.24-10.46-201.06-38.3-38.96-140.75-38.46-206.99 13.84" style="fill:url(#SVGID_1_)"/><linearGradient id="SVGID_2_" x1="117.913" x2="117.913" y1="540.229" y2="403.055" gradientUnits="userSpaceOnUse"><stop offset=".227" stop-color="#B7ACE0"/><stop offset=".789" stop-color="#E8E7FA"/></linearGradient><path d="M118.7 403.3s-.22-.57-.52.04c-2.7 5.49-27.15 64.96-29.09 110.86 0 0-4.08 26.37 30.11 26.02 28.54-.29 27.78-24.6 27.68-32.79-.39-33.22-28.18-104.13-28.18-104.13" style="fill:url(#SVGID_2_)"/><linearGradient id="SVGID_3_" x1="117.915" x2="117.915" y1="418.287" y2="569.42" gradientUnits="userSpaceOnUse"><stop offset="0" stop-color="#ECF1FB"/><stop offset=".818" stop-color="#AFB0E7"/></linearGradient><path d="M117.92 569.42c-.55 0-1-.45-1-1V419.29c0-.55.45-1 1-1s1 .45 1 1v149.13c0 .55-.45 1-1 1" style="fill:url(#SVGID_3_)"/><linearGradient id="SVGID_4_" x1="619.042" x2="619.042" y1="448.707" y2="360.383" gradientUnits="userSpaceOnUse"><stop offset=".227" stop-color="#CCD4F4"/><stop offset=".789" stop-color="#ECF1FB"/></linearGradient><path d="M619.55 360.54s-.14-.37-.33.03c-1.74 3.53-17.48 41.83-18.73 71.38 0 0-2.63 16.98 19.39 16.76 18.38-.18 17.89-15.84 17.82-21.11-.26-21.4-18.15-67.06-18.15-67.06" style="fill:url(#SVGID_4_)"/><linearGradient id="SVGID_5_" x1="619.043" x2="619.043" y1="370.19" y2="467.503" gradientUnits="userSpaceOnUse"><stop offset="0" stop-color="#ECF1FB"/><stop offset="1" stop-color="#A6A8E2"/></linearGradient><path d="M619.04 467.5c-.36 0-.64-.29-.64-.64v-96.02c0-.36.29-.64.64-.64s.64.29.64.64v96.02c.01.35-.28.64-.64.64" style="fill:url(#SVGID_5_)"/><linearGradient id="SVGID_6_" x1="464.96" x2="430.206" y1="86.101" y2="146.297" gradientUnits="userSpaceOnUse"><stop offset="0" stop-color="#FFDB80"/><stop offset="1" stop-color="#FFBB24"/></linearGradient><circle cx="447.58" cy="116.2" r="34.75" style="fill:url(#SVGID_6_)"/><linearGradient id="SVGID_7_" x1="422.623" x2="422.623" y1="116.567" y2="174.021" gradientUnits="userSpaceOnUse"><stop offset="0" stop-color="#F9FAFE"/><stop offset="1" stop-color="#E5EDF7"/></linearGradient><path d="M467.36 135.15h-34.57c-2.23-10.61-11.65-18.58-22.93-18.58s-20.69 7.97-22.93 18.58h-9.05c-10.73 0-19.44 8.7-19.44 19.44 0 10.73 8.7 19.44 19.44 19.44h89.47c10.73 0 19.44-8.7 19.44-19.44.01-10.74-8.7-19.44-19.43-19.44" style="fill:url(#SVGID_7_)"/><linearGradient id="SVGID_8_" x1="689.644" x2="689.644" y1="537.948" y2="510.119" gradientUnits="userSpaceOnUse"><stop offset=".227" stop-color="#AFB0E7"/><stop offset="1" stop-color="#ECF1FB"/></linearGradient><circle cx="689.64" cy="524.03" r="13.91" style="fill:url(#SVGID_8_)"/><linearGradient id="SVGID_9_" x1="689.694" x2="689.694" y1="513.633" y2="558.429" gradientUnits="userSpaceOnUse"><stop offset="0" stop-color="#DDE1F6"/><stop offset=".818" stop-color="#A6A8E2"/></linearGradient><path d="M689.69 558.43c-.24 0-.43-.19-.43-.43v-43.94c0-.24.19-.43.43-.43s.43.19.43.43V558c0 .24-.19.43-.43.43" style="fill:url(#SVGID_9_)"/><linearGradient id="SVGID_10_" x1="289.384" x2="289.384" y1="477.19" y2="411.226" gradientUnits="userSpaceOnUse"><stop offset="0" stop-color="#B0B9E1"/><stop offset="1" stop-color="#E7EFF7"/></linearGradient><path d="m202.07 451.28 68.03-40.05h106.6l-61.55 65.96-77.74-1.18z" style="fill:url(#SVGID_10_)"/><linearGradient id="SVGID_11_" x1="454.145" x2="454.145" y1="502.809" y2="420.65" gradientUnits="userSpaceOnUse"><stop offset="0" stop-color="#B0B9E1"/><stop offset="1" stop-color="#E7EFF7"/></linearGradient><path d="m386.71 479.55 45.05-58.9h89.82l-97.77 82.16-29.44-7.66z" style="fill:url(#SVGID_11_)"/><linearGradient id="SVGID_12_" x1="589.016" x2="589.016" y1="472.132" y2="397.68" gradientUnits="userSpaceOnUse"><stop offset="0" stop-color="#B0B9E1"/><stop offset="1" stop-color="#E7EFF7"/></linearGradient><path d="m501.26 458.64 64.79-60.96h110.72l-48.99 66.61a19.24 19.24 0 0 1-17.85 7.7z" style="fill:url(#SVGID_12_)"/><linearGradient id="SVGID_13_" x1="314.267" x2="314.267" y1="607.349" y2="497.361" gradientUnits="userSpaceOnUse"><stop offset="0" stop-color="#B0B9E1"/><stop offset="1" stop-color="#E7EFF7"/></linearGradient><path d="m212.23 592.77 91.44-95.41H416.3L297.04 607.35l-49.47-2.65z" style="fill:url(#SVGID_13_)"/><linearGradient id="SVGID_14_" x1="515.604" x2="613.092" y1="312.867" y2="481.721" gradientUnits="userSpaceOnUse"><stop offset="0" stop-color="#C8CBF2"/><stop offset="1" stop-color="#AFB0E7"/></linearGradient><path d="M564.35 296.53c-41.79 0-75.67 33.6-75.67 75.05v51.43c0 41.45 33.88 75.05 75.67 75.05s75.67-33.6 75.67-75.05v-51.43c-.01-41.45-33.88-75.05-75.67-75.05m23.82 137.83c0 13.05-10.67 23.63-23.82 23.63-13.16 0-23.82-10.58-23.82-23.63v-74.13c0-13.05 10.67-23.63 23.82-23.63 13.16 0 23.82 10.58 23.82 23.63z" style="fill:url(#SVGID_14_)"/><linearGradient id="SVGID_15_" x1="513.839" x2="606.64" y1="321.619" y2="482.355" gradientUnits="userSpaceOnUse"><stop offset=".116" stop-color="#DEE4FF"/><stop offset=".847" stop-color="#BACBEE"/></linearGradient><path d="M560.24 305.91c-39.52 0-71.56 32.04-71.56 71.56v49.03c0 39.52 32.04 71.56 71.56 71.56s71.56-32.04 71.56-71.56v-49.03c0-39.52-32.04-71.56-71.56-71.56m22.53 131.41c0 12.44-10.09 22.53-22.53 22.53s-22.53-10.09-22.53-22.53v-70.67c0-12.44 10.09-22.53 22.53-22.53s22.53 10.09 22.53 22.53z" style="fill:url(#SVGID_15_)"/><linearGradient id="SVGID_16_" x1="217.031" x2="316.583" y1="307.363" y2="479.793" gradientUnits="userSpaceOnUse"><stop offset="0" stop-color="#C8CBF2"/><stop offset="1" stop-color="#AFB0E7"/></linearGradient><path d="M333.72 412.6c-5.55-58.15-65.99-54.01-90.14-49.98l2.26-15.28 71.49 5.88 8.98-5.88V307.2h-109l-9.09 7.47-14.81 92.41h43.6c22.73-19.99 38.77-11.37 45.38 0 6.34 10.92 7.27 43.26-19.71 43.87-23.34.53-23.13-19.92-23.13-19.92l-41.55.58-8.06 7.52s6.18 59.41 69.73 59.41 77.3-50.09 74.05-85.94" style="fill:url(#SVGID_16_)"/><linearGradient id="SVGID_17_" x1="212.735" x2="309.699" y1="311.982" y2="479.928" gradientUnits="userSpaceOnUse"><stop offset=".116" stop-color="#DEE4FF"/><stop offset=".847" stop-color="#BACBEE"/></linearGradient><path d="M324.26 415.94c-5.19-55.89-61.65-51.92-84.21-48.04l2.11-14.69h75.17v-38.58H208.14l-14.95 96h40.73c21.23-19.21 36.22-10.93 42.39 0 5.92 10.49 6.79 46.38-18.41 46.97-21.8.51-24.41-19.14-24.41-19.14l-43.54.66s5.78 59.41 65.14 59.41 72.2-48.14 69.17-82.59" style="fill:url(#SVGID_17_)"/><linearGradient id="SVGID_18_" x1="368.459" x2="452.448" y1="304.731" y2="450.205" gradientUnits="userSpaceOnUse"><stop offset="0" stop-color="#C8CBF2"/><stop offset="1" stop-color="#AFB0E7"/></linearGradient><path d="M387.26 461.26s-54.09-36.72-56.49-83.83c-2.29-45.03 25.47-81.27 76.27-81.27 55.29 0 78.12 47.95 78.12 73.99s-10.63 63.25-55.73 93.35c-23.53 0-42.17-2.24-42.17-2.24" style="fill:url(#SVGID_18_)"/><linearGradient id="SVGID_19_" x1="366.623" x2="445.175" y1="312.428" y2="448.483" gradientUnits="userSpaceOnUse"><stop offset=".116" stop-color="#DEE4FF"/><stop offset=".847" stop-color="#BACBEE"/></linearGradient><path d="M384.76 461.29s-51.7-34.94-53.99-79.77c-2.19-42.85 24.35-77.34 72.9-77.34 52.85 0 73.47 45.54 73.47 70.32s-12.03 58.72-55.14 87.36c-22.49.01-37.24-.57-37.24-.57" style="fill:url(#SVGID_19_)"/><linearGradient id="SVGID_20_" x1="400.418" x2="417.994" y1="454.748" y2="485.191" gradientUnits="userSpaceOnUse"><stop offset="0" stop-color="#C8CBF2"/><stop offset="1" stop-color="#AFB0E7"/></linearGradient><path d="M414.59 486.78h-16.64c-.85 0-1.64-.44-2.08-1.17l-11.39-18.8c-.7-1.15-.33-2.64.82-3.34 1.15-.69 2.64-.33 3.34.82l10.68 17.62h13.84l10.6-19.05c.65-1.17 2.13-1.6 3.31-.94 1.17.65 1.6 2.13.94 3.31l-11.29 20.3c-.44.77-1.25 1.25-2.13 1.25" style="fill:url(#SVGID_20_)"/><linearGradient id="SVGID_21_" x1="397.841" x2="415.417" y1="454.748" y2="485.191" gradientUnits="userSpaceOnUse"><stop offset=".116" stop-color="#DEE4FF"/><stop offset=".847" stop-color="#BACBEE"/></linearGradient><path d="M412.01 486.78h-16.64c-.85 0-1.64-.44-2.08-1.17l-11.39-18.8c-.7-1.15-.33-2.64.82-3.34 1.15-.69 2.64-.33 3.34.82l10.68 17.62h13.84l10.6-19.05c.65-1.17 2.13-1.6 3.31-.94 1.17.65 1.6 2.13.94 3.31l-11.29 20.3c-.43.77-1.25 1.25-2.13 1.25" style="fill:url(#SVGID_21_)"/><linearGradient id="SVGID_22_" x1="395.626" x2="415.816" y1="441.888" y2="476.856" gradientUnits="userSpaceOnUse"><stop offset="0" stop-color="#C8CBF2"/><stop offset="1" stop-color="#AFB0E7"/></linearGradient><path d="M429.22 468.35h-47.66c-2.76 0-5-2.24-5-5V452.9h57.65v10.45c0 2.76-2.23 5-4.99 5" style="fill:url(#SVGID_22_)"/><linearGradient id="SVGID_23_" x1="395.022" x2="412.776" y1="445.756" y2="476.507" gradientUnits="userSpaceOnUse"><stop offset=".116" stop-color="#DEE4FF"/><stop offset=".847" stop-color="#BACBEE"/></linearGradient><path d="M425.57 468.35h-44.01c-2.76 0-5-2.24-5-5v-6.93h54.01v6.93c0 2.76-2.24 5-5 5" style="fill:url(#SVGID_23_)"/><linearGradient id="SVGID_24_" x1="396.171" x2="416.697" y1="472.261" y2="507.813" gradientUnits="userSpaceOnUse"><stop offset="0" stop-color="#C8CBF2"/><stop offset="1" stop-color="#AFB0E7"/></linearGradient><path d="M418.79 505.46h-25.7c-4.09 0-7.4-3.31-7.4-7.4v-19.75h40.5v19.75c0 4.09-3.31 7.4-7.4 7.4" style="fill:url(#SVGID_24_)"/><linearGradient id="SVGID_25_" x1="395.099" x2="413.018" y1="476.159" y2="507.195" gradientUnits="userSpaceOnUse"><stop offset=".116" stop-color="#DEE4FF"/><stop offset=".847" stop-color="#BACBEE"/></linearGradient><path d="M414.04 505.46h-20.95c-4.09 0-7.4-3.31-7.4-7.4v-16.47h35.75v16.47c0 4.09-3.31 7.4-7.4 7.4" style="fill:url(#SVGID_25_)"/><linearGradient id="SVGID_26_" x1="370.752" x2="439.366" y1="345.042" y2="413.656" gradientUnits="userSpaceOnUse"><stop offset="0" stop-color="#C8CBF2"/><stop offset="1" stop-color="#AFB0E7"/></linearGradient><path d="M404.4 311.4s-17.23 79.51 1.33 135.9c47.84-62.43-1.33-135.9-1.33-135.9" style="fill:url(#SVGID_26_)"/><linearGradient id="SVGID_27_" x1="352.936" x2="415.513" y1="350.49" y2="413.067" gradientUnits="userSpaceOnUse"><stop offset="0" stop-color="#C8CBF2"/><stop offset="1" stop-color="#AFB0E7"/></linearGradient><path d="M386.43 316.99s-15.24 26.94-16.34 62.72c-.75 24.43 11.93 66.85 11.93 66.85s-20.76-36.07-20.76-70.23 25.17-59.34 25.17-59.34" style="fill:url(#SVGID_27_)"/><linearGradient id="SVGID_28_" x1="389.798" x2="456.792" y1="347.846" y2="414.84" gradientUnits="userSpaceOnUse"><stop offset="0" stop-color="#C8CBF2"/><stop offset="1" stop-color="#AFB0E7"/></linearGradient><path d="M420.65 316.99s34.1 22.12 34.1 60.99-29.68 68.58-29.68 68.58 23.5-42.18 23.5-70.9c0-14.24-13.98-48.76-27.92-58.67" style="fill:url(#SVGID_28_)"/><path d="M386.43 316.99s-62.13 47.12-4.42 129.57c-7.06-15.6-36.21-73.62 4.42-129.57m34.22 0s62.13 47.12 4.42 129.57c7.07-15.6 36.22-73.62-4.42-129.57m-16.25-5.59s-35.48 79.66 1.33 135.9c32.24-57.5-1.33-135.9-1.33-135.9" class="st26"/><linearGradient id="SVGID_29_" x1="234.692" x2="234.692" y1="561.708" y2="486.088" gradientUnits="userSpaceOnUse"><stop offset="0" stop-color="#C3D5FD"/><stop offset="1" stop-color="#1A90FC"/></linearGradient><path d="M226.89 486.45s-18.35-2.54-24.31 5.89-8.14 30.01-8.14 30.01l13.81-.73-1.16 25.14 25.48 14.94 36.3-19.52-5.52-22.78 11.6-3.03s-3.46-33.06-19.59-28.18c-8.29.89-10.9.74-10.9.74s-2.18 6.95-9.67 6.36c-7.49-.58-7.9-8.84-7.9-8.84" style="fill:url(#SVGID_29_)"/><linearGradient id="SVGID_30_" x1="235.741" x2="235.741" y1="473.191" y2="497.147" gradientUnits="userSpaceOnUse"><stop offset="0" stop-color="#F4AE98"/><stop offset="1" stop-color="#FAD1BB"/></linearGradient><path d="m228.72 476.05-3.81 17.01c-.18.8.24 1.61 1 1.92 1.97.8 5.91 2.17 9.97 2.17 4.21 0 8.18-2.3 10-3.53.63-.42.89-1.21.65-1.93l-5.83-17.35a1.68 1.68 0 0 0-1.89-1.12l-8.74 1.55c-.67.11-1.2.62-1.35 1.28" style="fill:url(#SVGID_30_)"/><linearGradient id="SVGID_31_" x1="-1535.437" x2="-1523.728" y1="750.954" y2="668.51" gradientTransform="rotate(-8.082 -1929.216 -11692.611)" gradientUnits="userSpaceOnUse"><stop offset="0" stop-color="#C3D5FD"/><stop offset="1" stop-color="#1A90FC"/></linearGradient><path d="M205.94 489.39c5.34-1.77 12.58-.59 12.88 11.39.29 11.98-11.45 31.07-7.24 37.71 4.26 6.73 13.37 16.29 19.17 21.73-1.35 6.4-4.99 11.78-4.99 11.78s-21.36-9.86-30.66-19.73-4.61-32.5-.3-48.61c3.24-12.13 11.14-14.27 11.14-14.27" style="fill:url(#SVGID_31_)"/><linearGradient id="SVGID_32_" x1="-5585.118" x2="-5573.409" y1="175.804" y2="93.36" gradientTransform="scale(-1 1)rotate(-8.082 -118.041 -37329.02)" gradientUnits="userSpaceOnUse"><stop offset="0" stop-color="#C3D5FD"/><stop offset="1" stop-color="#1A90FC"/></linearGradient><path d="M261.91 489.39c-5.34-1.77-12.58-.59-12.88 11.39-.29 11.98 11.45 31.07 7.24 37.71-4.26 6.73-13.37 16.29-19.17 21.73 1.35 6.4 4.99 11.78 4.99 11.78s21.36-9.86 30.66-19.73 4.61-32.5.3-48.61c-3.24-12.13-11.14-14.27-11.14-14.27" style="fill:url(#SVGID_32_)"/><linearGradient id="SVGID_33_" x1="234.692" x2="234.692" y1="534.399" y2="582.454" gradientUnits="userSpaceOnUse"><stop offset="0" stop-color="#275C89"/><stop offset="1" stop-color="#013F7C"/></linearGradient><path d="M208.53 582.45h51.85c2.35 0 4.45-1.78 5.26-4.46l10.45-34.39c1.36-4.46-1.35-9.21-5.26-9.21h-72.29c-3.87 0-6.58 4.67-5.29 9.11l9.98 34.39c.8 2.74 2.92 4.56 5.3 4.56" style="fill:url(#SVGID_33_)"/><path d="M206.46 598.27s-.8-1.76-1.42-1.95-9.49-.54-12.72-1.38-12.56-2.17-16.56 1.61c-3.48 3.3-4.63 11 .67 15.43 1.99 1.73 3.94 2.23 11.31 1.89s18.04-.27 20.38-3.68c-.07-5.65-1.66-11.92-1.66-11.92" class="st26"/><linearGradient id="SVGID_34_" x1="-3991.106" x2="-3974.093" y1="603.193" y2="603.193" gradientTransform="matrix(-1 0 0 1 -3772.525 0)" gradientUnits="userSpaceOnUse"><stop offset="0" stop-color="#F4B9A4"/><stop offset=".652" stop-color="#FAD1BB"/></linearGradient><path d="M214.69 596.31s-8.56 1.92-11.62 1.64-.5 12.05-.5 12.05 8.17.57 15.4-1.53c2.45-9.44-3.28-12.16-3.28-12.16" style="fill:url(#SVGID_34_)"/><linearGradient id="SVGID_35_" x1="211.625" x2="299.388" y1="584.443" y2="584.443" gradientUnits="userSpaceOnUse"><stop offset="0" stop-color="#18264B"/><stop offset=".652" stop-color="#2D3C65"/></linearGradient><path d="m211.63 595.87 4.45 13.84s95.64-12.6 81.97-43.63c-11.43-25.96-86.42 29.79-86.42 29.79" style="fill:url(#SVGID_35_)"/><linearGradient id="SVGID_36_" x1="191.837" x2="191.837" y1="594.929" y2="612.987" gradientUnits="userSpaceOnUse"><stop offset="0" stop-color="#FFDB80"/><stop offset="1" stop-color="#FFBB24"/></linearGradient><path d="M205.35 596.94s3.5 1.37 3.95 6.26c.44 4.89-1 8.17-8.45 9.07-7.45.91-9.34.57-14.01.68s-11.45.57-12.46-8.32c-1-8.88 8.08-11.15 17.5-8.88 2.96.56 13.47 1.19 13.47 1.19" style="fill:url(#SVGID_36_)"/><path d="M266.14 598.27s.8-1.76 1.42-1.95 9.49-.54 12.72-1.38 11.93-2.24 16.32 1.51c4.07 3.48 4.34 11.16-.3 15.4-1.99 1.73-4.08 2.35-11.44 2.01s-18.04-.27-20.38-3.68c.08-5.64 1.66-11.91 1.66-11.91" class="st26"/><linearGradient id="SVGID_37_" x1="254.028" x2="271.04" y1="603.193" y2="603.193" gradientUnits="userSpaceOnUse"><stop offset="0" stop-color="#F4B9A4"/><stop offset=".652" stop-color="#FAD1BB"/></linearGradient><path d="M257.92 596.31s8.56 1.92 11.62 1.64.5 12.05.5 12.05-8.17.57-15.4-1.53c-2.45-9.44 3.28-12.16 3.28-12.16" style="fill:url(#SVGID_37_)"/><linearGradient id="SVGID_38_" x1="173.22" x2="260.983" y1="584.443" y2="584.443" gradientUnits="userSpaceOnUse"><stop offset="0" stop-color="#445677"/><stop offset="1" stop-color="#293861"/></linearGradient><path d="m260.98 595.87-4.45 13.84s-95.64-12.6-81.97-43.63c11.43-25.96 86.42 29.79 86.42 29.79" style="fill:url(#SVGID_38_)"/><linearGradient id="SVGID_39_" x1="280.771" x2="280.771" y1="594.929" y2="612.987" gradientUnits="userSpaceOnUse"><stop offset="0" stop-color="#FFDB80"/><stop offset="1" stop-color="#FFBB24"/></linearGradient><path d="M267.26 596.94s-3.5 1.37-3.95 6.26 1 8.17 8.45 9.07 9.34.57 14.01.68 11.45.57 12.46-8.32c1-8.88-8.08-11.15-17.5-8.88-2.96.56-13.47 1.19-13.47 1.19" style="fill:url(#SVGID_39_)"/><linearGradient id="SVGID_40_" x1="251.42" x2="220.113" y1="467.696" y2="467.696" gradientUnits="userSpaceOnUse"><stop offset="0" stop-color="#F4B9A4"/><stop offset=".652" stop-color="#FAD1BB"/></linearGradient><path d="M250.74 469.25c.57-.81.93-2.88.46-3.49-.84-.68-1.63-.29-2.24.3.14-4.96-.31-9.07-.42-10.12-.31-3.04-3.4-8.6-13.5-8.6s-12.05 7.29-12.05 7.29-.66 5.15-.46 11.41c-.6-.58-1.39-.95-2.22-.28-.46.61-.1 2.68.46 3.49.57.81.93 2.73 1.03 3.79.1 1.01-.63 3.7 2.03 3.36 1.59 6.35 8.01 11.64 11.99 11.64 4.36 0 10.16-5.33 11.8-11.65 2.71.37 1.98-2.34 2.07-3.35.13-1.06.49-2.98 1.05-3.79" style="fill:url(#SVGID_40_)"/><linearGradient id="SVGID_41_" x1="215.804" x2="252.152" y1="455.594" y2="455.594" gradientUnits="userSpaceOnUse"><stop offset="0" stop-color="#4F5C7C"/><stop offset="1" stop-color="#274168"/></linearGradient><path d="M242.34 445.19s-1.97-6.21-9.53-4.72c-7.55 1.48-8.06 5.06-11.03 5.19-5.06.24-9.11 6.54-2.61 13.22 2.89 2.97.45 4.25 1.82 6.88s1.36 5.19 1.36 5.19 2.41-7.71.82-11c-.82-1.7 2.82-2.16 7.35-1.75s11.68-1.1 12.24-4.18c1.34 6.32 2.68 6.98 4.38 7.94s1.8 8.6 1.8 8.6.3-5.62 1.49-6.88c.98-2.07 2.89-10.22.73-12.19s-.34-8.31-8.82-6.3" style="fill:url(#SVGID_41_)"/><linearGradient id="SVGID_42_" x1="509.948" x2="509.948" y1="612.061" y2="547.57" gradientUnits="userSpaceOnUse"><stop offset="0" stop-color="#B0B9E1"/><stop offset="1" stop-color="#E7EFF7"/></linearGradient><path d="m452.67 596.16 45.65-48.59h68.9l-60.95 64.49z" style="fill:url(#SVGID_42_)"/><linearGradient id="SVGID_43_" x1="461.835" x2="495.632" y1="563.724" y2="622.263" gradientUnits="userSpaceOnUse"><stop offset="0" stop-color="#C8CBF2"/><stop offset="1" stop-color="#AFB0E7"/></linearGradient><circle cx="478.73" cy="592.99" r="33.79" style="fill:url(#SVGID_43_)"/><linearGradient id="SVGID_44_" x1="455.798" x2="489.595" y1="564.313" y2="622.851" gradientUnits="userSpaceOnUse"><stop offset=".116" stop-color="#DEE4FF"/><stop offset=".847" stop-color="#BACBEE"/></linearGradient><circle cx="472.7" cy="593.58" r="33.79" style="fill:url(#SVGID_44_)"/><linearGradient id="SVGID_45_" x1="479.001" x2="503.267" y1="231.35" y2="273.38" gradientUnits="userSpaceOnUse"><stop offset="0" stop-color="#C8CBF2"/><stop offset="1" stop-color="#AFB0E7"/></linearGradient><circle cx="491.13" cy="252.36" r="24.26" style="fill:url(#SVGID_45_)"/><linearGradient id="SVGID_46_" x1="474.666" x2="498.933" y1="231.772" y2="273.803" gradientUnits="userSpaceOnUse"><stop offset=".116" stop-color="#DEE4FF"/><stop offset=".847" stop-color="#BACBEE"/></linearGradient><circle cx="486.8" cy="252.79" r="24.26" style="fill:url(#SVGID_46_)"/></g></svg>